<?xml version="1.0" encoding="UTF-8" standalone="no"?>
<svg
   xmlns:dc="http://purl.org/dc/elements/1.1/"
   xmlns:cc="http://creativecommons.org/ns#"
   xmlns:rdf="http://www.w3.org/1999/02/22-rdf-syntax-ns#"
   xmlns:svg="http://www.w3.org/2000/svg"
   xmlns="http://www.w3.org/2000/svg"
   version="1.1"
   id="svg833"
   width="96"
   height="96"
   viewBox="0 0 96 96">
  <metadata
     id="metadata839">
    <rdf:RDF>
      <cc:Work
         rdf:about="">
        <dc:format>image/svg+xml</dc:format>
        <dc:type
           rdf:resource="http://purl.org/dc/dcmitype/StillImage" />
        <dc:title></dc:title>
      </cc:Work>
    </rdf:RDF>
  </metadata>
  <defs
     id="defs837" />
  <g
     id="layer1">
    <path
       style="display:inline;fill:none;stroke:#000000;stroke-width:3.26929134;stroke-linecap:butt;stroke-linejoin:miter;stroke-opacity:1;stroke-miterlimit:4;stroke-dasharray:none"
       d="m 26.284752,39.710194 c 3.104557,-10.662716 14.072451,-14.638585 14.072451,-14.638585 4.330085,-1.813769 12.107156,-1.598593 16.498736,0.404381 4.31332,2.535553 6.402319,3.817524 9.947768,8.41112 2.915134,4.556024 3.882473,7.737153 4.124684,14.153328 l 6.389216,4e-6 c 3.46637,-0.131025 6.793598,1.213143 9.866892,4.771694 2.383195,3.094112 2.899944,6.543991 2.770254,10.62337 -0.671942,3.284799 -0.31865,7.795851 -10.291737,8.625155 l -60.414491,4e-6 C 13.255512,69.506121 12.429883,67.824514 9.705139,63.973049 7.8307464,60.556631 8.0095111,50.993703 10.271272,47.797818 c 2.796707,-4.770853 9.094188,-8.234432 16.01348,-8.087624 z"
       id="path845" />
  </g>
</svg>
