<?xml version="1.0" encoding="UTF-8" standalone="no"?>
<svg
   xmlns:dc="http://purl.org/dc/elements/1.1/"
   xmlns:cc="http://creativecommons.org/ns#"
   xmlns:rdf="http://www.w3.org/1999/02/22-rdf-syntax-ns#"
   xmlns:svg="http://www.w3.org/2000/svg"
   xmlns="http://www.w3.org/2000/svg"
   xmlns:sodipodi="http://sodipodi.sourceforge.net/DTD/sodipodi-0.dtd"
   xmlns:inkscape="http://www.inkscape.org/namespaces/inkscape"
   inkscape:version="1.0 (4035a4fb49, 2020-05-01)"
   sodipodi:docname="SnowFlakeFull.svg"
   viewBox="0 0 38.900002 38.900002"
   height="38.900002"
   width="38.900002"
   id="svg833"
   version="1.1">
  <metadata
     id="metadata839">
    <rdf:RDF>
      <cc:Work
         rdf:about="">
        <dc:format>image/svg+xml</dc:format>
        <dc:type
           rdf:resource="http://purl.org/dc/dcmitype/StillImage" />
        <dc:title></dc:title>
      </cc:Work>
    </rdf:RDF>
  </metadata>
  <defs
     id="defs837" />
  <sodipodi:namedview
     inkscape:current-layer="layer3"
     inkscape:window-maximized="0"
     inkscape:window-y="0"
     inkscape:window-x="1266"
     inkscape:cy="35.550158"
     inkscape:cx="24.292909"
     inkscape:zoom="6.1822915"
     showgrid="true"
     id="namedview835"
     inkscape:window-height="1368"
     inkscape:window-width="1278"
     inkscape:pageshadow="2"
     inkscape:pageopacity="0"
     guidetolerance="10"
     gridtolerance="10"
     objecttolerance="10"
     borderopacity="1"
     bordercolor="#666666"
     pagecolor="#ffffff"
     inkscape:document-rotation="0"
     inkscape:snap-grids="true" />
  <g
     inkscape:label="Image 1"
     id="layer1"
     inkscape:groupmode="layer"
     style="display:none"
     transform="translate(-25.55,-15.55)">
    <path
       sodipodi:nodetypes="ccccccccccccc"
       id="path845"
       d="m 26.284752,39.710194 c 3.104557,-10.662716 14.072451,-14.638585 14.072451,-14.638585 4.330085,-1.813769 12.107156,-1.598593 16.498736,0.404381 4.31332,2.535553 6.402319,3.817524 9.947768,8.41112 2.915134,4.556024 3.882473,7.737153 4.124684,14.153328 l 6.389216,4e-6 c 3.46637,-0.131025 6.793598,1.213143 9.866892,4.771694 2.383195,3.094112 2.899944,6.543991 2.770254,10.62337 -0.671942,3.284799 -0.31865,7.795851 -10.291737,8.625155 l -60.414491,4e-6 C 13.255512,69.506121 12.429883,67.824514 9.705139,63.973049 7.8307464,60.556631 8.0095111,50.993703 10.271272,47.797818 c 2.796707,-4.770853 9.094188,-8.234432 16.01348,-8.087624 z"
       style="display:inline;fill:none;stroke:#000000;stroke-width:3.26929;stroke-linecap:butt;stroke-linejoin:miter;stroke-miterlimit:4;stroke-dasharray:none;stroke-opacity:1" />
  </g>
  <g
     inkscape:groupmode="layer"
     id="layer3"
     inkscape:label="Image 2"
     transform="translate(-25.55,-15.55)">
    <path
       d="m 54,38 -3,-3 3,-3 m 5,6 -3,-3 3,-3 m -17,16 3,-3 3,3 m -6,-5 3,-3 3,3 m 8,0 h -3 v 3 m -3,-2 v -4 h 4 m -20,3 h 3 v 3 m -1,-6 h 4 v 4 m -5,-9 -3,3 m 3,-3 -3,-3 m 8,3 -3,3 m 3,-3 -3,-3 m 16,-8 v 3 h 3 m -6,-1 v 4 h 4 M 34,27 h 3 v -3 m 5,-2 3,3 3,-3 m -6,5 3,3 3,-3 m -8,-1 v 4 h -4 m -1,15 -3,3 m 13,2 v 4 m 10,-9 3,3 m 2,-13 h 4 M 55,25 58,22 M 45,20 v -4 m -10,9 -3,-3 m -2,13 h -4 m 2,2 2,-2 -2,-2 m 7,15 v -3 h -3 m 15,7 -2,-2 -2,2 m 15,-7 h -3 v 3 m 7,-15 -2,2 2,2 M 55,22 v 3 h 3 m -13,-5 2,-2 m -2,2 -2,-2 m -8,7 H 32 M 55,45 35,25 V 22 M 35,45 55,25 M 30,35 H 60 M 45,20 v 30"
       style="fill:none;stroke:#000000;stroke-width:1px;stroke-linecap:round;stroke-linejoin:miter;stroke-opacity:1"
       id="path2152" />
  </g>
</svg>
