<?xml version="1.0" encoding="UTF-8" standalone="no"?>
<svg
   xmlns:dc="http://purl.org/dc/elements/1.1/"
   xmlns:cc="http://creativecommons.org/ns#"
   xmlns:rdf="http://www.w3.org/1999/02/22-rdf-syntax-ns#"
   xmlns:svg="http://www.w3.org/2000/svg"
   xmlns="http://www.w3.org/2000/svg"
   xmlns:sodipodi="http://sodipodi.sourceforge.net/DTD/sodipodi-0.dtd"
   xmlns:inkscape="http://www.inkscape.org/namespaces/inkscape"
   version="1.1"
   id="svg833"
   width="96"
   height="96"
   viewBox="0 0 96 96"
   sodipodi:docname="SnowingFull.svg"
   inkscape:version="1.0 (4035a4fb49, 2020-05-01)">
  <metadata
     id="metadata839">
    <rdf:RDF>
      <cc:Work
         rdf:about="">
        <dc:format>image/svg+xml</dc:format>
        <dc:type
           rdf:resource="http://purl.org/dc/dcmitype/StillImage" />
        <dc:title></dc:title>
      </cc:Work>
    </rdf:RDF>
  </metadata>
  <defs
     id="defs837" />
  <sodipodi:namedview
     inkscape:document-rotation="0"
     pagecolor="#ffffff"
     bordercolor="#666666"
     borderopacity="1"
     objecttolerance="10"
     gridtolerance="10"
     guidetolerance="10"
     inkscape:pageopacity="0"
     inkscape:pageshadow="2"
     inkscape:window-width="1278"
     inkscape:window-height="1368"
     id="namedview835"
     showgrid="false"
     inkscape:zoom="3.0911458"
     inkscape:cx="37.448849"
     inkscape:cy="-4.6268122"
     inkscape:window-x="1273"
     inkscape:window-y="0"
     inkscape:window-maximized="0"
     inkscape:current-layer="layer2" />
  <g
     inkscape:groupmode="layer"
     id="layer1"
     inkscape:label="Image 1">
    <path
       style="display:inline;fill:none;stroke:#000000;stroke-width:3.26929134;stroke-linecap:butt;stroke-linejoin:miter;stroke-opacity:1;stroke-miterlimit:4;stroke-dasharray:none"
       d="m 26.284752,39.710194 c 3.104557,-10.662716 14.072451,-14.638585 14.072451,-14.638585 4.330085,-1.813769 12.107156,-1.598593 16.498736,0.404381 4.31332,2.535553 6.402319,3.817524 9.947768,8.41112 2.915134,4.556024 3.882473,7.737153 4.124684,14.153328 l 6.389216,4e-6 c 3.46637,-0.131025 6.793598,1.213143 9.866892,4.771694 2.383195,3.094112 2.899944,6.543991 2.770254,10.62337 -0.671942,3.284799 -0.31865,7.795851 -10.291737,8.625155 l -60.414491,4e-6 C 13.255512,69.506121 12.429883,67.824514 9.705139,63.973049 7.8307464,60.556631 8.0095111,50.993703 10.271272,47.797818 c 2.796707,-4.770853 9.094188,-8.234432 16.01348,-8.087624 z"
       id="path845"
       sodipodi:nodetypes="ccccccccccccc" />
  </g>
  <g
     inkscape:label="Image 2"
     id="layer2"
     inkscape:groupmode="layer">
    <g
       transform="matrix(0.2469792,0,0,0.2469792,15.19693,75.953192)"
       id="g1297">
      <g
         id="layer1-6"
         style="display:none"
         transform="translate(-25.55,-15.55)">
        <path
           id="path845-1"
           d="m 26.284752,39.710194 c 3.104557,-10.662716 14.072451,-14.638585 14.072451,-14.638585 4.330085,-1.813769 12.107156,-1.598593 16.498736,0.404381 4.31332,2.535553 6.402319,3.817524 9.947768,8.41112 2.915134,4.556024 3.882473,7.737153 4.124684,14.153328 l 6.389216,4e-6 c 3.46637,-0.131025 6.793598,1.213143 9.866892,4.771694 2.383195,3.094112 2.899944,6.543991 2.770254,10.62337 -0.671942,3.284799 -0.31865,7.795851 -10.291737,8.625155 l -60.414491,4e-6 C 13.255512,69.506121 12.429883,67.824514 9.705139,63.973049 7.8307464,60.556631 8.0095111,50.993703 10.271272,47.797818 c 2.796707,-4.770853 9.094188,-8.234432 16.01348,-8.087624 z"
           style="display:inline;fill:none;stroke:#000000;stroke-width:3.26929;stroke-linecap:butt;stroke-linejoin:miter;stroke-miterlimit:4;stroke-dasharray:none;stroke-opacity:1" />
      </g>
      <g
         id="layer3"
         transform="translate(-25.55,-15.55)">
        <path
           d="m 54,38 -3,-3 3,-3 m 5,6 -3,-3 3,-3 m -17,16 3,-3 3,3 m -6,-5 3,-3 3,3 m 8,0 h -3 v 3 m -3,-2 v -4 h 4 m -20,3 h 3 v 3 m -1,-6 h 4 v 4 m -5,-9 -3,3 m 3,-3 -3,-3 m 8,3 -3,3 m 3,-3 -3,-3 m 16,-8 v 3 h 3 m -6,-1 v 4 h 4 M 34,27 h 3 v -3 m 5,-2 3,3 3,-3 m -6,5 3,3 3,-3 m -8,-1 v 4 h -4 m -1,15 -3,3 m 13,2 v 4 m 10,-9 3,3 m 2,-13 h 4 M 55,25 58,22 M 45,20 v -4 m -10,9 -3,-3 m -2,13 h -4 m 2,2 2,-2 -2,-2 m 7,15 v -3 h -3 m 15,7 -2,-2 -2,2 m 15,-7 h -3 v 3 m 7,-15 -2,2 2,2 M 55,22 v 3 h 3 m -13,-5 2,-2 m -2,2 -2,-2 m -8,7 H 32 M 55,45 35,25 V 22 M 35,45 55,25 M 30,35 H 60 M 45,20 v 30"
           style="fill:none;stroke:#000000;stroke-width:1px;stroke-linecap:round;stroke-linejoin:miter;stroke-opacity:1"
           id="path2152" />
      </g>
    </g>
    <g
       id="g1307"
       transform="matrix(0.30171124,0,0,0.30171124,31.286262,82.859445)">
      <g
         transform="translate(-25.55,-15.55)"
         style="display:none"
         id="g1301">
        <path
           style="display:inline;fill:none;stroke:#000000;stroke-width:3.26929;stroke-linecap:butt;stroke-linejoin:miter;stroke-miterlimit:4;stroke-dasharray:none;stroke-opacity:1"
           d="m 26.284752,39.710194 c 3.104557,-10.662716 14.072451,-14.638585 14.072451,-14.638585 4.330085,-1.813769 12.107156,-1.598593 16.498736,0.404381 4.31332,2.535553 6.402319,3.817524 9.947768,8.41112 2.915134,4.556024 3.882473,7.737153 4.124684,14.153328 l 6.389216,4e-6 c 3.46637,-0.131025 6.793598,1.213143 9.866892,4.771694 2.383195,3.094112 2.899944,6.543991 2.770254,10.62337 -0.671942,3.284799 -0.31865,7.795851 -10.291737,8.625155 l -60.414491,4e-6 C 13.255512,69.506121 12.429883,67.824514 9.705139,63.973049 7.8307464,60.556631 8.0095111,50.993703 10.271272,47.797818 c 2.796707,-4.770853 9.094188,-8.234432 16.01348,-8.087624 z"
           id="path1299" />
      </g>
      <g
         transform="translate(-25.55,-15.55)"
         id="g1305">
        <path
           id="path1303"
           style="fill:none;stroke:#000000;stroke-width:0.818595px;stroke-linecap:round;stroke-linejoin:miter;stroke-opacity:1"
           d="m 34.528785,30.733103 -2.455784,-2.455784 2.455784,-2.455783 m 4.092973,4.911567 -2.455784,-2.455784 2.455784,-2.455783 m -13.916109,13.097514 2.455784,-2.455784 2.455784,2.455784 m -4.911568,-4.092973 2.455784,-2.455784 2.455784,2.455784 m 6.548757,0 H 33.71019 v 2.455784 m -2.455784,-1.63719 v -3.274378 h 3.274379 m -16.371893,2.455784 h 2.455784 v 2.455784 m -0.818595,-4.911568 h 3.274379 v 3.274378 m -4.092973,-7.367352 -2.455784,2.455784 m 2.455784,-2.455784 -2.455784,-2.455783 m 6.548757,2.455783 -2.455784,2.455784 M 23.06846,28.277319 20.612676,25.821536 M 33.71019,19.272778 v 2.455784 h 2.455784 m -4.911568,-0.818594 v 3.274378 h 3.274379 M 18.156892,21.728562 h 2.455784 v -2.455784 m 4.092973,-1.637189 2.455784,2.455784 2.455784,-2.455784 m -4.911568,4.092973 2.455784,2.455784 2.455784,-2.455784 M 23.06846,20.909968 v 3.274378 h -3.274379 m -0.818594,12.27892 -2.455784,2.455784 m 10.64173,1.637189 v 3.274379 m 8.185947,-7.367352 2.455784,2.455784 m 1.637189,-10.641731 h 3.274378 M 35.34738,20.091373 37.803164,17.635589 M 27.161433,15.9984 v -3.274379 m -8.185946,7.367352 -2.455784,-2.455784 m -1.637189,10.64173 h -3.274379 m 1.637189,1.63719 1.63719,-1.63719 -1.63719,-1.637189 m 5.730163,12.27892 v -2.455784 h -2.455784 m 12.278919,5.730162 -1.637189,-1.637189 -1.637189,1.637189 m 12.27892,-5.730162 H 35.34738 v 2.455784 m 5.730162,-12.27892 -1.637189,1.637189 1.637189,1.63719 M 35.34738,17.635589 v 2.455784 h 2.455784 M 27.161433,15.9984 28.798622,14.361211 M 27.161433,15.9984 25.524244,14.361211 m -6.548757,5.730162 H 16.519703 M 35.34738,36.463266 18.975487,20.091373 v -2.455784 m 0,18.827677 L 35.34738,20.091373 M 14.882514,28.277319 H 39.440353 M 27.161433,15.9984 v 24.557839" />
      </g>
    </g>
    <g
       transform="matrix(0.2469792,0,0,0.2469792,38.916379,77.876884)"
       id="g1317">
      <g
         id="g1311"
         style="display:none"
         transform="translate(-25.55,-15.55)">
        <path
           id="path1309"
           d="m 26.284752,39.710194 c 3.104557,-10.662716 14.072451,-14.638585 14.072451,-14.638585 4.330085,-1.813769 12.107156,-1.598593 16.498736,0.404381 4.31332,2.535553 6.402319,3.817524 9.947768,8.41112 2.915134,4.556024 3.882473,7.737153 4.124684,14.153328 l 6.389216,4e-6 c 3.46637,-0.131025 6.793598,1.213143 9.866892,4.771694 2.383195,3.094112 2.899944,6.543991 2.770254,10.62337 -0.671942,3.284799 -0.31865,7.795851 -10.291737,8.625155 l -60.414491,4e-6 C 13.255512,69.506121 12.429883,67.824514 9.705139,63.973049 7.8307464,60.556631 8.0095111,50.993703 10.271272,47.797818 c 2.796707,-4.770853 9.094188,-8.234432 16.01348,-8.087624 z"
           style="display:inline;fill:none;stroke:#000000;stroke-width:3.26929;stroke-linecap:butt;stroke-linejoin:miter;stroke-miterlimit:4;stroke-dasharray:none;stroke-opacity:1" />
      </g>
      <g
         id="g1315"
         transform="translate(-25.55,-15.55)">
        <path
           d="m 54,38 -3,-3 3,-3 m 5,6 -3,-3 3,-3 m -17,16 3,-3 3,3 m -6,-5 3,-3 3,3 m 8,0 h -3 v 3 m -3,-2 v -4 h 4 m -20,3 h 3 v 3 m -1,-6 h 4 v 4 m -5,-9 -3,3 m 3,-3 -3,-3 m 8,3 -3,3 m 3,-3 -3,-3 m 16,-8 v 3 h 3 m -6,-1 v 4 h 4 M 34,27 h 3 v -3 m 5,-2 3,3 3,-3 m -6,5 3,3 3,-3 m -8,-1 v 4 h -4 m -1,15 -3,3 m 13,2 v 4 m 10,-9 3,3 m 2,-13 h 4 M 55,25 58,22 M 45,20 v -4 m -10,9 -3,-3 m -2,13 h -4 m 2,2 2,-2 -2,-2 m 7,15 v -3 h -3 m 15,7 -2,-2 -2,2 m 15,-7 h -3 v 3 m 7,-15 -2,2 2,2 M 55,22 v 3 h 3 m -13,-5 2,-2 m -2,2 -2,-2 m -8,7 H 32 M 55,45 35,25 V 22 M 35,45 55,25 M 30,35 H 60 M 45,20 v 30"
           style="fill:none;stroke:#000000;stroke-width:1px;stroke-linecap:round;stroke-linejoin:miter;stroke-opacity:1"
           id="path1313" />
      </g>
    </g>
    <g
       id="g1327"
       transform="matrix(0.2469792,0,0,0.2469792,48.530882,84.308331)">
      <g
         transform="translate(-25.55,-15.55)"
         style="display:none"
         id="g1321">
        <path
           style="display:inline;fill:none;stroke:#000000;stroke-width:3.26929;stroke-linecap:butt;stroke-linejoin:miter;stroke-miterlimit:4;stroke-dasharray:none;stroke-opacity:1"
           d="m 26.284752,39.710194 c 3.104557,-10.662716 14.072451,-14.638585 14.072451,-14.638585 4.330085,-1.813769 12.107156,-1.598593 16.498736,0.404381 4.31332,2.535553 6.402319,3.817524 9.947768,8.41112 2.915134,4.556024 3.882473,7.737153 4.124684,14.153328 l 6.389216,4e-6 c 3.46637,-0.131025 6.793598,1.213143 9.866892,4.771694 2.383195,3.094112 2.899944,6.543991 2.770254,10.62337 -0.671942,3.284799 -0.31865,7.795851 -10.291737,8.625155 l -60.414491,4e-6 C 13.255512,69.506121 12.429883,67.824514 9.705139,63.973049 7.8307464,60.556631 8.0095111,50.993703 10.271272,47.797818 c 2.796707,-4.770853 9.094188,-8.234432 16.01348,-8.087624 z"
           id="path1319" />
      </g>
      <g
         transform="translate(-25.55,-15.55)"
         id="g1325">
        <path
           id="path1323"
           style="fill:none;stroke:#000000;stroke-width:1px;stroke-linecap:round;stroke-linejoin:miter;stroke-opacity:1"
           d="m 54,38 -3,-3 3,-3 m 5,6 -3,-3 3,-3 m -17,16 3,-3 3,3 m -6,-5 3,-3 3,3 m 8,0 h -3 v 3 m -3,-2 v -4 h 4 m -20,3 h 3 v 3 m -1,-6 h 4 v 4 m -5,-9 -3,3 m 3,-3 -3,-3 m 8,3 -3,3 m 3,-3 -3,-3 m 16,-8 v 3 h 3 m -6,-1 v 4 h 4 M 34,27 h 3 v -3 m 5,-2 3,3 3,-3 m -6,5 3,3 3,-3 m -8,-1 v 4 h -4 m -1,15 -3,3 m 13,2 v 4 m 10,-9 3,3 m 2,-13 h 4 M 55,25 58,22 M 45,20 v -4 m -10,9 -3,-3 m -2,13 h -4 m 2,2 2,-2 -2,-2 m 7,15 v -3 h -3 m 15,7 -2,-2 -2,2 m 15,-7 h -3 v 3 m 7,-15 -2,2 2,2 M 55,22 v 3 h 3 m -13,-5 2,-2 m -2,2 -2,-2 m -8,7 H 32 M 55,45 35,25 V 22 M 35,45 55,25 M 30,35 H 60 M 45,20 v 30" />
      </g>
    </g>
    <g
       transform="matrix(0.2469792,0,0,0.2469792,59.573421,76.411653)"
       id="g1337">
      <g
         id="g1331"
         style="display:none"
         transform="translate(-25.55,-15.55)">
        <path
           id="path1329"
           d="m 26.284752,39.710194 c 3.104557,-10.662716 14.072451,-14.638585 14.072451,-14.638585 4.330085,-1.813769 12.107156,-1.598593 16.498736,0.404381 4.31332,2.535553 6.402319,3.817524 9.947768,8.41112 2.915134,4.556024 3.882473,7.737153 4.124684,14.153328 l 6.389216,4e-6 c 3.46637,-0.131025 6.793598,1.213143 9.866892,4.771694 2.383195,3.094112 2.899944,6.543991 2.770254,10.62337 -0.671942,3.284799 -0.31865,7.795851 -10.291737,8.625155 l -60.414491,4e-6 C 13.255512,69.506121 12.429883,67.824514 9.705139,63.973049 7.8307464,60.556631 8.0095111,50.993703 10.271272,47.797818 c 2.796707,-4.770853 9.094188,-8.234432 16.01348,-8.087624 z"
           style="display:inline;fill:none;stroke:#000000;stroke-width:3.26929;stroke-linecap:butt;stroke-linejoin:miter;stroke-miterlimit:4;stroke-dasharray:none;stroke-opacity:1" />
      </g>
      <g
         id="g1335"
         transform="translate(-25.55,-15.55)">
        <path
           d="m 54,38 -3,-3 3,-3 m 5,6 -3,-3 3,-3 m -17,16 3,-3 3,3 m -6,-5 3,-3 3,3 m 8,0 h -3 v 3 m -3,-2 v -4 h 4 m -20,3 h 3 v 3 m -1,-6 h 4 v 4 m -5,-9 -3,3 m 3,-3 -3,-3 m 8,3 -3,3 m 3,-3 -3,-3 m 16,-8 v 3 h 3 m -6,-1 v 4 h 4 M 34,27 h 3 v -3 m 5,-2 3,3 3,-3 m -6,5 3,3 3,-3 m -8,-1 v 4 h -4 m -1,15 -3,3 m 13,2 v 4 m 10,-9 3,3 m 2,-13 h 4 M 55,25 58,22 M 45,20 v -4 m -10,9 -3,-3 m -2,13 h -4 m 2,2 2,-2 -2,-2 m 7,15 v -3 h -3 m 15,7 -2,-2 -2,2 m 15,-7 h -3 v 3 m 7,-15 -2,2 2,2 M 55,22 v 3 h 3 m -13,-5 2,-2 m -2,2 -2,-2 m -8,7 H 32 M 55,45 35,25 V 22 M 35,45 55,25 M 30,35 H 60 M 45,20 v 30"
           style="fill:none;stroke:#000000;stroke-width:1px;stroke-linecap:round;stroke-linejoin:miter;stroke-opacity:1"
           id="path1333" />
      </g>
    </g>
    <g
       id="g1347"
       transform="matrix(0.2469792,0,0,0.2469792,71.77267,81.681655)">
      <g
         transform="translate(-25.55,-15.55)"
         style="display:none"
         id="g1341">
        <path
           style="display:inline;fill:none;stroke:#000000;stroke-width:3.26929;stroke-linecap:butt;stroke-linejoin:miter;stroke-miterlimit:4;stroke-dasharray:none;stroke-opacity:1"
           d="m 26.284752,39.710194 c 3.104557,-10.662716 14.072451,-14.638585 14.072451,-14.638585 4.330085,-1.813769 12.107156,-1.598593 16.498736,0.404381 4.31332,2.535553 6.402319,3.817524 9.947768,8.41112 2.915134,4.556024 3.882473,7.737153 4.124684,14.153328 l 6.389216,4e-6 c 3.46637,-0.131025 6.793598,1.213143 9.866892,4.771694 2.383195,3.094112 2.899944,6.543991 2.770254,10.62337 -0.671942,3.284799 -0.31865,7.795851 -10.291737,8.625155 l -60.414491,4e-6 C 13.255512,69.506121 12.429883,67.824514 9.705139,63.973049 7.8307464,60.556631 8.0095111,50.993703 10.271272,47.797818 c 2.796707,-4.770853 9.094188,-8.234432 16.01348,-8.087624 z"
           id="path1339" />
      </g>
      <g
         transform="translate(-25.55,-15.55)"
         id="g1345">
        <path
           id="path1343"
           style="fill:none;stroke:#000000;stroke-width:1px;stroke-linecap:round;stroke-linejoin:miter;stroke-opacity:1"
           d="m 54,38 -3,-3 3,-3 m 5,6 -3,-3 3,-3 m -17,16 3,-3 3,3 m -6,-5 3,-3 3,3 m 8,0 h -3 v 3 m -3,-2 v -4 h 4 m -20,3 h 3 v 3 m -1,-6 h 4 v 4 m -5,-9 -3,3 m 3,-3 -3,-3 m 8,3 -3,3 m 3,-3 -3,-3 m 16,-8 v 3 h 3 m -6,-1 v 4 h 4 M 34,27 h 3 v -3 m 5,-2 3,3 3,-3 m -6,5 3,3 3,-3 m -8,-1 v 4 h -4 m -1,15 -3,3 m 13,2 v 4 m 10,-9 3,3 m 2,-13 h 4 M 55,25 58,22 M 45,20 v -4 m -10,9 -3,-3 m -2,13 h -4 m 2,2 2,-2 -2,-2 m 7,15 v -3 h -3 m 15,7 -2,-2 -2,2 m 15,-7 h -3 v 3 m 7,-15 -2,2 2,2 M 55,22 v 3 h 3 m -13,-5 2,-2 m -2,2 -2,-2 m -8,7 H 32 M 55,45 35,25 V 22 M 35,45 55,25 M 30,35 H 60 M 45,20 v 30" />
      </g>
    </g>
  </g>
</svg>
